<svg xmlns="http://www.w3.org/2000/svg" viewBox="0 0 166.995 64.538"><defs><style>.a{fill:none;}.b{fill:#fff;}.c{fill:#00ffdc;}</style></defs><g transform="translate(0 -0.1)"><path class="a" d="M71.2,72.018c0,3.83,1.6,5.681,4.724,5.681a5.671,5.671,0,0,0,4.149-1.979,12.843,12.843,0,0,0,3-5.3,24.151,24.151,0,0,0,1.085-7.277,6.88,6.88,0,0,0-1.149-4.213A3.83,3.83,0,0,0,79.754,57.4a5.826,5.826,0,0,0-4.277,1.979A14.309,14.309,0,0,0,72.349,64.8,23.648,23.648,0,0,0,71.2,72.018Z" transform="translate(-25.749 -20.722)"/><path class="a" d="M131.813,65.352a5.1,5.1,0,0,0,3.575-1.277,4.669,4.669,0,0,0,1.341-3.575,2.846,2.846,0,0,0-.83-2.234,3.286,3.286,0,0,0-2.362-.766H132.26l-1.66,7.852Z" transform="translate(-47.23 -20.758)"/><g transform="translate(2.426 29.401)"><path class="b" d="M13.5,48.426A18.5,18.5,0,0,0,6.417,56.15,24.622,24.622,0,0,0,3.8,67.513c0,4.4,1.149,7.788,3.383,10.15s5.426,3.575,9.512,3.575a39.088,39.088,0,0,0,12.257-1.915l3.958-18.7H18.61l-1.6,7.213H22.44l-1.213,5.49a18.569,18.569,0,0,1-3.128.319c-3.256,0-4.915-2.043-4.915-6.192a17.862,17.862,0,0,1,1.4-7.15,11.66,11.66,0,0,1,3.83-5.043,9.2,9.2,0,0,1,5.49-1.724,14.2,14.2,0,0,1,7.213,2.107L34.569,48.3A19.444,19.444,0,0,0,27.611,46a76.35,76.35,0,0,0-11.874,1.341A14.435,14.435,0,0,0,13.5,48.426Z" transform="translate(-3.8 -46)"/></g><g transform="translate(36.195 31.188)"><path class="b" d="M65.7,49.5a18.243,18.243,0,0,0-6.575,7.98A27.245,27.245,0,0,0,56.7,68.972c0,4.213,1.085,7.4,3.383,9.767s5.554,3.511,9.767,3.511a16.7,16.7,0,0,0,9.575-2.745,18.007,18.007,0,0,0,6.447-7.98,28.006,28.006,0,0,0,2.362-11.491c0-3.894-.958-6.958-2.936-9.192A185.069,185.069,0,0,1,66.85,48.8C66.467,49.055,66.084,49.247,65.7,49.5Zm8.873,4.915A3.83,3.83,0,0,1,77.83,55.95a6.88,6.88,0,0,1,1.149,4.213,24.151,24.151,0,0,1-1.085,7.277,13.272,13.272,0,0,1-3,5.3,5.916,5.916,0,0,1-4.149,1.979c-3.128,0-4.724-1.915-4.724-5.681a22.263,22.263,0,0,1,1.149-7.086A13.1,13.1,0,0,1,70.3,56.524,5.454,5.454,0,0,1,74.574,54.418Z" transform="translate(-56.7 -48.8)"/></g><g transform="translate(69.964 33.678)"><path class="b" d="M116.047,52.764,109.6,83.15h9.192l2.681-12.512H123.2l4.6,12.512h10.022l-.958-2.234-5.3-12.129a11.077,11.077,0,0,0,4.979-4.149,12.349,12.349,0,0,0,1.66-6.384,9.521,9.521,0,0,0-1.6-5.554c-4.085.128-8.235.192-12.257.192C121.6,52.892,118.792,52.828,116.047,52.764Zm9.831,3a3.286,3.286,0,0,1,2.362.766,3.088,3.088,0,0,1,.83,2.234,4.669,4.669,0,0,1-1.341,3.575,4.99,4.99,0,0,1-3.575,1.277h-1.213l1.66-7.852Z" transform="translate(-109.6 -52.7)"/></g><g transform="translate(101.372 30.678)"><path class="b" d="M165.375,50.426,158.8,81.45h20.428l1.6-7.6H169.588l1.341-6.511H181.4l1.724-7.469H172.652l1.085-5.426h11.235L186.313,48q-6.128,1.053-13.023,1.724C170.737,50.043,168.12,50.234,165.375,50.426Z" transform="translate(-158.8 -48)"/></g><g transform="translate(128.502 29.72)"><path class="b" d="M201.3,80.908h8.171l3.064-14.363a91.7,91.7,0,0,0,1.341-9.831h.192l6.83,24.194h10.724L238.9,46.5h-8.171l-3.064,14.427c-.447,2.107-.894,5.043-1.341,8.746H226l-6.575-22.534a83.975,83.975,0,0,1-11.3,1.213Z" transform="translate(-201.3 -46.5)"/></g><path class="a" d="M134.41,7.8c-4.724,0-10.086.255-15.831.7-6.767.575-14.235,4.788-19.278,8.235l64.921-1.468a26.73,26.73,0,0,0-7.277-4.277C151.965,8.885,144.368,7.8,134.41,7.8Z" transform="translate(-35.911 -2.785)"/><path class="c" d="M162.974,14.144c-.766-.064-1.6-.128-2.553-.255-.319-.064-.638-.064-1.021-.128-.7-.064-1.4-.192-2.17-.319-1.532-.255-3.192-.511-5.043-.894A76.107,76.107,0,0,1,136.673,7.5h0c-.511-.255-1.085-.447-1.6-.7-.192-.064-.319-.128-.511-.192-.319-.128-.7-.319-1.021-.447-.192-.064-.383-.192-.575-.255l-.958-.383c-.192-.064-.447-.192-.638-.255a5,5,0,0,0-.894-.319c-.191-.064-.383-.128-.638-.192-.319-.128-.575-.192-.894-.319l-.575-.192c-.319-.128-.638-.192-.958-.319-.192-.064-.319-.128-.511-.192-.447-.128-.894-.255-1.277-.383-.064,0-.128-.064-.192-.064-.447-.128-.83-.255-1.277-.383-.192-.064-.319-.064-.511-.128a4.7,4.7,0,0,1-.894-.255c-.192-.064-.383-.064-.575-.128l-.766-.192c-.192-.064-.383-.064-.575-.128l-.766-.192c-.192-.064-.383-.064-.575-.128a3.2,3.2,0,0,0-.766-.128c-.192-.064-.383-.064-.575-.128a3.234,3.234,0,0,0-.83-.128c-.192,0-.319-.064-.511-.064-.383-.064-.7-.128-1.085-.192-.128,0-.255-.064-.383-.064A6.289,6.289,0,0,0,114.267.93c-.192,0-.319-.064-.511-.064C113.5.8,113.245.8,112.99.738c-.192,0-.383-.064-.511-.064-.255,0-.511-.064-.7-.064s-.383-.064-.575-.064c-.255,0-.447-.064-.7-.064-.192,0-.383-.064-.575-.064-.255,0-.511-.064-.7-.064a1.244,1.244,0,0,1-.511-.064c-.255,0-.511-.064-.766-.064H107.5c-.383,0-.7-.064-1.085-.064H106.1c-.383,0-.7-.064-1.085-.064H90.839a58.237,58.237,0,0,0-9.831.83,9.039,9.039,0,0,0-1.277.255A57.511,57.511,0,0,0,67.475,5.271c-1.021.447-1.979.958-2.873,1.4-2.17,1.149-4.277,2.3-6.256,3.383-.83.511-1.66.958-2.49,1.4a1.335,1.335,0,0,0-.383.255,6.729,6.729,0,0,0-.7.447l-.958.575c-.255.192-.511.319-.766.511a9.339,9.339,0,0,0-.83.575c-.128.064-.255.192-.383.255a4.294,4.294,0,0,1-.7.447.332.332,0,0,1-.255.128c-.064.064-.128.064-.255.128-.064,0-.064.064-.128.064-.128.064-.319.128-.447.192-.192.064-.447.192-.7.255a4.069,4.069,0,0,1-.447.128,4.068,4.068,0,0,1-.447.128h-.064c-2.553.575-7.6,1.021-20.555,2.49-2.617.319-4.979.638-7.086,1.085A45.245,45.245,0,0,0,6.32,24.039c-.319.192-.638.383-.894.575a14.488,14.488,0,0,0-3.894,3.575,6.686,6.686,0,0,1-.511.7c-.064.128-.192.319-.255.447a6.443,6.443,0,0,0-.447.958h0A4.155,4.155,0,0,0,0,31.635s7.213-9.32,37.472-9.32H74.816c1.468,0,2.936,0,4.4-.064h7.6c.766,0,1.532,0,2.3-.064h.192c.7,0,1.4,0,2.107-.064h3.064a14.429,14.429,0,0,0,1.66-.064h.7c.638,0,1.277,0,1.915-.064h.383c.766,0,1.6-.064,2.362-.064h.255c.7,0,1.4-.064,2.043-.064h.638c.575,0,1.149-.064,1.66-.064h.7c.575,0,1.085-.064,1.66-.064h.7c.638,0,1.277-.064,1.851-.064h.383c.766,0,1.532-.064,2.3-.064h.319c.638,0,1.277-.064,1.915-.064h.638c.511,0,1.085-.064,1.6-.064h.7c.511,0,1.021-.064,1.6-.064h.638c.638,0,1.213-.064,1.851-.064h.319c.7-.064,1.468-.064,2.17-.128h.383c.575-.064,1.149-.064,1.724-.128a2.172,2.172,0,0,0,.638-.064c.511,0,1.021-.064,1.468-.064a2.619,2.619,0,0,0,.7-.064c.511-.064.958-.064,1.468-.128a2.4,2.4,0,0,0,.638-.064c.383,0,.766-.064,1.149-.064h0c14.746-1.085,26.747-2.745,32.365-5.362C167.251,14.463,165.974,14.4,162.974,14.144ZM56.559,16.7h0a.235.235,0,0,1-.192-.064h0l-.128-.128h0v-.192h0c0-.064.064-.128.128-.192h0A80.878,80.878,0,0,1,65.56,9.612a6.379,6.379,0,0,1,.894-.511c.575-.319,1.213-.7,1.851-1.021.319-.192.638-.319.958-.511.638-.319,1.277-.638,1.979-.958a32.214,32.214,0,0,1,4.086-1.66c.7-.255,1.4-.447,2.107-.7a18.367,18.367,0,0,1,3.128-.7c.7-.128,1.4-.192,2.107-.255h0c.575-.064,1.085-.064,1.66-.128h.383c.575-.064,1.149-.064,1.724-.128h.192c.511-.064,1.085-.064,1.6-.128H88.6c.575-.064,1.213-.064,1.787-.128h.319c.511,0,1.085-.064,1.6-.064h.319c.575,0,1.213-.064,1.787-.064H94.8a14.428,14.428,0,0,0,1.66-.064h5.618a11.3,11.3,0,0,1,1.468.064h.383c.383,0,.766.064,1.085.064h.511c.319,0,.638.064.958.064a1.767,1.767,0,0,1,.575.064c.319,0,.638.064.958.064a1.406,1.406,0,0,1,.511.064c.447.064.894.064,1.277.128h.128l1.341.192c.128,0,.319.064.447.064.319.064.638.064.894.128.192,0,.319.064.511.064.319.064.575.064.894.128.192,0,.319.064.511.064l.958.192a2.765,2.765,0,0,1,.319.064c.447.064.83.192,1.277.255.128,0,.192.064.319.064a5.318,5.318,0,0,1,.958.255,4.067,4.067,0,0,0,.447.128,3.6,3.6,0,0,1,.766.255,4.067,4.067,0,0,0,.447.128c.255.064.511.192.766.255.128.064.255.064.383.128a7.788,7.788,0,0,1,1.085.447,34.47,34.47,0,0,1,5.362,2.745,18.68,18.68,0,0,1,1.66,1.149c.191.128.319.255.511.383,3.256,2.617,3.83,4.724,3.83,4.724Z" transform="translate(0 0)"/><path class="b" d="M132.43,49h0Z" transform="translate(-47.592 -17.684)"/><path class="b" d="M252.849,27.9c-.383.064-.766.192-1.149.255.383-.064.766-.192,1.149-.255Z" transform="translate(-91.025 -10.054)"/><path class="b" d="M259.1,26.519h0a11.761,11.761,0,0,1,1.6-.319C260.121,26.328,259.611,26.392,259.1,26.519Z" transform="translate(-93.701 -9.439)"/><path class="b" d="M15.6,43.366c.7-.255,1.468-.511,2.234-.766C17,42.855,16.238,43.111,15.6,43.366Z" transform="translate(-5.642 -15.37)"/><path class="b" d="M33.3,39.147c1.149-.192,2.3-.319,3.511-.447A31.019,31.019,0,0,0,33.3,39.147Z" transform="translate(-12.043 -13.959)"/><path class="b" d="M53.083,37.9h0Z" transform="translate(-19.058 -13.67)"/><path class="c" d="M205.6,40.039c.83,0,1.66,0,2.426-.064,1.6-.064,3.128-.128,4.532-.255,2.873-.192,5.49-.575,7.788-.958a49.111,49.111,0,0,0,9.831-2.745c.383-.128.7-.319,1.021-.447.7-.319,1.277-.575,1.851-.894.83-.447,1.6-.894,2.234-1.277a12.515,12.515,0,0,0,3.447-3h0a101.692,101.692,0,0,1-17.81,6.639A97.128,97.128,0,0,1,205.6,40.039Z" transform="translate(-74.353 -10.958)"/><path class="b" d="M168.442,26.2h0c-.575.128-1.085.255-1.6.319-1.213.255-2.362.511-3.575.766a3348479.722,3348479.722,0,0,1-2.3.511l-1.915.383c-.383.064-.83.192-1.213.255-.638.128-1.213.255-1.851.383a7.423,7.423,0,0,0-1.149.255l-1.915.383c-.383.064-.7.128-1.085.192-.766.128-1.468.255-2.17.383-.255.064-.447.064-.7.128-.958.192-1.915.319-2.873.511a1.767,1.767,0,0,1-.575.064c-.766.128-1.532.255-2.234.383a4.928,4.928,0,0,1-.958.128c-.638.128-1.213.192-1.851.319-.319.064-.7.128-1.021.192-.575.064-1.149.192-1.724.255-.319.064-.7.128-1.021.192-.575.064-1.149.192-1.724.255a4.928,4.928,0,0,1-.958.128c-.638.064-1.213.192-1.851.255-.255.064-.511.064-.766.128-.83.128-1.66.255-2.426.319h-.128c-.83.128-1.724.255-2.553.319-.192,0-.447.064-.638.064a18.42,18.42,0,0,0-1.851.255c-.319.064-.575.064-.894.128-.511.064-1.085.128-1.6.192-.319.064-.575.064-.894.128l-1.532.192c-.319,0-.575.064-.894.064l-1.532.192c-.255,0-.511.064-.83.064l-1.724.192c-.192,0-.383.064-.575.064l-2.3.192h-.192c-.7.064-1.341.128-2.043.192-.255,0-.447.064-.7.064-.511.064-1.021.064-1.468.128-.255,0-.575.064-.83.064-.447,0-.894.064-1.341.064-.255,0-.575.064-.83.064-.447,0-.894.064-1.341.064a3.108,3.108,0,0,0-.766.064c-.447,0-.958.064-1.4.064a2.619,2.619,0,0,0-.7.064c-.575,0-1.149.064-1.724.064h-.319c-.7,0-1.341.064-2.043.064h-.575a10.343,10.343,0,0,0-1.4.064H81.88c-.83,0-1.66,0-2.426-.064h-.447c-.766,0-1.6-.064-2.362-.064h-.128c-.83,0-1.6-.064-2.426-.064h-.447c-.766,0-1.532-.064-2.3-.064H70.9c-.766-.064-1.532-.064-2.3-.128h-.128c-.7-.064-1.468-.064-2.17-.128h-.383c-.7-.064-1.4-.064-2.107-.128a1.406,1.406,0,0,1-.511-.064c-.7-.064-1.4-.064-2.107-.128h-.319c-.638-.064-1.341-.128-1.979-.128H58.58c-.7-.064-1.4-.128-2.043-.192a1.086,1.086,0,0,1-.447-.064c-.638-.064-1.341-.128-1.979-.192a.81.81,0,0,1-.383-.064l-1.915-.192h-.192c-.7-.064-1.4-.128-2.043-.192a1.246,1.246,0,0,1-.447-.064c-.638-.064-1.341-.128-1.979-.192l-2.3-.192c-.83-.064-1.724-.128-2.553-.192a3.64,3.64,0,0,1-.83-.064c-.511,0-1.085-.064-1.6-.064h-.958a10.343,10.343,0,0,1-1.4-.064H32.279c-.447,0-.83.064-1.213.064a3.108,3.108,0,0,0-.766.064c-.447,0-.83.064-1.213.064-.255,0-.447.064-.7.064-.447.064-.894.064-1.277.128-.192,0-.383.064-.575.064-1.213.128-2.426.255-3.511.447-.128,0-.255.064-.447.064-.383.064-.83.128-1.213.192a1.5,1.5,0,0,0-.511.128c-.319.064-.7.128-1.021.192-.192.064-.383.064-.511.128l-.958.192c-.192.064-.319.064-.511.128-.319.064-.638.128-.894.192-.128.064-.319.064-.447.128-.319.064-.638.192-.894.255-.511.064-.638.128-.766.128-.319.128-.7.192-1.021.319-.064,0-.128.064-.192.064-.83.255-1.532.511-2.234.766-.064,0-.192.064-.255.064-.255.064-.511.192-.766.255-.128.064-.192.064-.319.128-.192.064-.447.192-.638.255-.128.064-.192.064-.319.128-.192.064-.383.192-.575.255-.064.064-.192.064-.255.128a3.79,3.79,0,0,0-.511.255c-.064.064-.128.064-.255.128-.192.064-.319.192-.511.255-.064,0-.128.064-.192.064-.192.128-.383.192-.575.319h0c-.192.128-.383.192-.575.319a.063.063,0,0,0-.064.064,1.079,1.079,0,0,0-.319.128c-.064,0-.064.064-.128.064-.064.064-.192.128-.255.192-.064,0-.064.064-.128.064-.064.064-.128.064-.192.128-.064,0-.064.064-.128.064-.064.064-.128.064-.128.128l-.064.064c-.064,0-.064.064-.128.064a.063.063,0,0,0-.064.064L4,41.074h.064a.063.063,0,0,0,.064-.064h.064c.064,0,.128-.064.192-.064h.064a.2.2,0,0,1,.192-.192H4.7c.064-.064.192-.064.319-.128.064,0,.064-.064.128-.064.128-.064.192-.064.319-.128.064,0,.128-.064.192-.064a4.4,4.4,0,0,1,.511-.192h.064c.192-.064.383-.128.638-.192.064,0,.128-.064.192-.064.192-.064.319-.128.511-.192.064,0,.192-.064.255-.064l.575-.192c.064,0,.128-.064.192-.064.255-.064.575-.192.83-.255.064,0,.128-.064.192-.064l.766-.192c.128,0,.192-.064.319-.064.255-.064.447-.128.7-.192.128,0,.192-.064.319-.064.319-.064.575-.128.894-.192.064,0,.128,0,.128-.064.383-.064.766-.192,1.149-.255a2.765,2.765,0,0,0,.319-.064c.255-.064.575-.128.894-.192.128,0,.255-.064.447-.064.319-.064.638-.128.894-.192.128,0,.255-.064.383-.064l1.341-.192a.235.235,0,0,0,.192-.064l1.149-.192c.128,0,.319-.064.447-.064.319-.064.7-.064,1.021-.128.192,0,.319-.064.511-.064.383-.064.83-.064,1.277-.128h.255c.511-.064,1.021-.064,1.6-.128h.447c.383,0,.766-.064,1.213-.064h.575a7.726,7.726,0,0,0,1.213-.064H32.79a8.991,8.991,0,0,1,1.277.064,3.108,3.108,0,0,1,.766.064c.383,0,.766.064,1.213.064.255,0,.511.064.83.064.383.064.83.064,1.213.128.255,0,.575.064.83.064.447.064.83.064,1.277.128.255.064.511.064.83.128.447.064.958.128,1.4.192.255.064.447.064.7.128.7.128,1.4.255,2.17.383s1.6.255,2.362.383c.255.064.511.064.766.128.511.064,1.085.192,1.66.255.319.064.638.064.958.128.511.064.958.128,1.468.192.255.064.511.064.83.128H53.6c.447.064.958.128,1.468.192.383.064.7.064,1.085.128a10.44,10.44,0,0,0,1.4.128c.383.064.766.064,1.085.128.447.064.958.064,1.4.128.383.064.766.064,1.149.128.447.064.894.064,1.341.128H62.6c.383,0,.766.064,1.149.064.447.064.958.064,1.4.128.383,0,.766.064,1.149.064.447,0,.958.064,1.4.064.383,0,.766.064,1.149.064.447,0,.958.064,1.4.064.383,0,.766.064,1.149.064.447,0,.958.064,1.4.064.383,0,.766.064,1.149.064.447,0,.958.064,1.4.064a6.938,6.938,0,0,1,1.149.064,10.343,10.343,0,0,1,1.4.064H96.69a8.139,8.139,0,0,0,1.213-.064,4.832,4.832,0,0,0,.958-.064,6.938,6.938,0,0,0,1.149-.064,4.832,4.832,0,0,0,.958-.064c.383,0,.766-.064,1.149-.064a3.925,3.925,0,0,0,.894-.064c.383,0,.766-.064,1.149-.064a4.214,4.214,0,0,0,.894-.064c.383,0,.766-.064,1.085-.064a3.64,3.64,0,0,0,.83-.064c.383,0,.7-.064,1.085-.064.255,0,.511-.064.83-.064.383,0,.7-.064,1.021-.064h.128a2.172,2.172,0,0,0,.638-.064c.319,0,.7-.064,1.021-.064.255,0,.511-.064.7-.064.319,0,.7-.064,1.021-.064.192,0,.447-.064.638-.064.383,0,.766-.064,1.085-.064a1.405,1.405,0,0,0,.511-.064c.511-.064,1.021-.064,1.532-.128l2.107-.192a173.4,173.4,0,0,0,27.7-5.235c1.341-.383,2.681-.766,3.894-1.149s2.426-.766,3.575-1.085a121.19,121.19,0,0,0,13.98-5.554Z" transform="translate(-1.447 -9.439)"/><path class="b" d="M261.6,26.2Z" transform="translate(-94.605 -9.439)"/></g></svg>